<svg xmlns="http://www.w3.org/2000/svg" width="27.698" height="35">
    <defs>
        <clipPath id="a">
            <path d="M0 0h27.7v59.927H0z" fill="#3625b8"/>
        </clipPath>
    </defs>
    <g transform="translate(0 65)" clip-path="url(#a)">
        <path d="M27.377-41.923L24.501-44.8v-4.9a10.73 10.73 0 0 0-9.586-10.651v-2.13h-2.13v2.13a10.81 10.81 0 0 0-9.587 10.652v4.9L.322-41.923a.97.97 0 0 0-.319.745v3.2a1 1 0 0 0 1.065 1.065h7.456a5.326 5.326 0 1 0 10.65 0h7.456a1 1 0 0 0 1.065-1.065v-3.2a.97.97 0 0 0-.319-.745zm-13.528 8.2a3.2 3.2 0 0 1-3.2-3.2h6.391a3.2 3.2 0 0 1-3.19 3.201z" fill="#3625b8"/>
    </g>
</svg>
