<svg xmlns="http://www.w3.org/2000/svg" width="27.698" height="27.726" viewBox="0 0 27.698 27.726">
  <path id="settings-solid" d="M30.326,14.756l-3.1-.924a10.767,10.767,0,0,0-.878-2.153l1.516-2.837a.564.564,0,0,0-.1-.665L25.557,5.957a.564.564,0,0,0-.665-.1L22.073,7.362a10.739,10.739,0,0,0-2.181-.924l-.924-3.059A.564.564,0,0,0,18.422,3H15.3a.564.564,0,0,0-.536.4l-.924,3.05a10.748,10.748,0,0,0-2.2.924l-2.773-1.5a.564.564,0,0,0-.665.1L5.955,8.166a.564.564,0,0,0-.1.665l1.5,2.773a10.748,10.748,0,0,0-.924,2.19l-3.059.924a.564.564,0,0,0-.4.536v3.124a.564.564,0,0,0,.4.536l3.078.924a10.739,10.739,0,0,0,.924,2.153l-1.516,2.9a.564.564,0,0,0,.1.665l2.209,2.209a.564.564,0,0,0,.665.1l2.856-1.525a10.767,10.767,0,0,0,2.126.869l.924,3.114a.564.564,0,0,0,.536.4h3.124a.564.564,0,0,0,.536-.4l.924-3.124a10.748,10.748,0,0,0,2.107-.869l2.874,1.534a.564.564,0,0,0,.665-.1l2.209-2.209a.564.564,0,0,0,.1-.665l-1.534-2.865a10.748,10.748,0,0,0,.878-2.116l3.114-.924a.564.564,0,0,0,.4-.536V15.3a.564.564,0,0,0-.342-.545ZM16.86,21.946a5.083,5.083,0,1,1,5.083-5.083,5.083,5.083,0,0,1-5.083,5.083Z" transform="translate(-2.97 -3)" fill="#3625b8"/>
</svg>
