<svg xmlns="http://www.w3.org/2000/svg" width="17.339" height="23.088" viewBox="0 0 17.339 23.088">
  <path id="u" d="M17.316,1.488V17.316A5.56,5.56,0,0,1,15.625,21.4a5.564,5.564,0,0,1-4.081,1.691H5.772A5.56,5.56,0,0,1,1.691,21.4,5.564,5.564,0,0,1,0,17.316V1.443A1.387,1.387,0,0,1,.428.428,1.4,1.4,0,0,1,1.455,0,1.4,1.4,0,0,1,2.48.428a1.39,1.39,0,0,1,.428,1.015l-.022.022V17.316a2.782,2.782,0,0,0,.845,2.041,2.777,2.777,0,0,0,2.041.845h5.772a2.886,2.886,0,0,0,2.886-2.886V1.443A1.387,1.387,0,0,1,14.859.428a1.442,1.442,0,0,1,2.052,0,1.39,1.39,0,0,1,.428,1.015A.065.065,0,0,0,17.316,1.488Z" fill="#3625b8"/>
</svg>
