<svg xmlns="http://www.w3.org/2000/svg" width="571.552" height="678.226" viewBox="0 0 571.552 678.226">
  <path id="Tracé_6" data-name="Tracé 6" d="M762.057,5.948C738.916-1.208,720.338,13.5,711.618,33.7q-18.468,42.774-36.941,85.537c-3.154,7.3-10.743,11.169-18.577,10.284-1.12-.131-2.247-.2-3.395-.23l-94.547-1.842a17.771,17.771,0,0,1-15.685-25.137l18.206-40.429c9.146-20.31,6.412-43.687-13.767-56.294C529.927-5.018,500.23-.607,491.165,19.512L258.039,537.23l-32.687,72.6c-9.147,20.31-6.419,43.682,13.766,56.289,16.986,10.612,46.683,6.194,55.742-13.925Q324.53,586.3,354.2,520.414c3.827-8.5,12.908-9.3,22.163-9.458,3.975-.066,8.644-.159,13.323-.066l87.353,4.5a17.77,17.77,0,0,1,15.8,24.886l-5.363,12.416q-15.713,36.386-31.43,72.772c-8.835,20.458,8.354,45.016,27.461,50.926,23.142,7.162,41.719-7.555,50.439-27.751q112.069-259.49,224.144-518.986,15.712-36.386,31.43-72.777C798.353,36.422,781.165,11.858,762.057,5.948ZM607.57,274.621a17.526,17.526,0,0,1-17.325,10.6c-.612-.044-1.23-.071-1.848-.082l-100.358-1.957a17.771,17.771,0,0,1-15.69-25.137q10.447-23.191,20.889-46.382c3.346-7.435,11.262-12.033,19.189-10.409a36.769,36.769,0,0,0,6.637.738l92.551,1.8a17.765,17.765,0,0,1,15.794,24.886Q617.494,251.646,607.57,274.621ZM523.24,440.978,417.9,438.922a17.771,17.771,0,0,1-15.685-25.138l21.655-48.094c3.668-8.14,12.722-11.8,21.229-9.316a36.842,36.842,0,0,0,9.633,1.465l89.594,1.749a17.77,17.77,0,0,1,15.8,24.886q-9.791,22.658-19.572,45.311a18.459,18.459,0,0,1-17.314,11.191Z" transform="translate(-220.35 0)" fill="#3625b8" opacity="0.075"/>
</svg>
