<svg id="Iconly_Light-outline_Notification" data-name="Iconly/Light-outline/Notification" xmlns="http://www.w3.org/2000/svg" width="19.275" height="22.677" viewBox="0 0 19.275 22.677">
  <g id="Notification" transform="translate(0 0)">
    <path id="Notification-2" data-name="Notification" d="M9.122,22.649A3.96,3.96,0,0,1,6.48,21.167.8.8,0,0,1,6.6,20.056a.774.774,0,0,1,1.1.126,2.4,2.4,0,0,0,1.6.9,2.427,2.427,0,0,0,1.788-.505,2.167,2.167,0,0,0,.4-.394.776.776,0,0,1,1.1-.12.8.8,0,0,1,.119,1.112,3.731,3.731,0,0,1-.677.661,3.959,3.959,0,0,1-2.915.817ZM4.55,17.967a5.557,5.557,0,0,1-3.5-1.728A4.6,4.6,0,0,1,0,13.223v-.269a4.643,4.643,0,0,1,.757-2.318l.076-.1A4.375,4.375,0,0,0,1.888,8.473l-.017.069,0-.606.013-.676c.01-.3.027-.565.048-.819a6.781,6.781,0,0,1,2.527-4.6A8.085,8.085,0,0,1,9.6,0h.082a8.094,8.094,0,0,1,5.136,1.844,6.827,6.827,0,0,1,2.537,4.6c.019.224.029.43.032.734v.763c0,.124,0,.236.005.349l.01.222.051.212a4.42,4.42,0,0,0,.824,1.622l.17.2.07.09a4.583,4.583,0,0,1,.761,2.352v.457a4.607,4.607,0,0,1-1.095,2.831,5.426,5.426,0,0,1-3.454,1.686,47.207,47.207,0,0,1-5.094.277A47.166,47.166,0,0,1,4.55,17.967Zm-2.525-6.4h0l-.088.146a3.043,3.043,0,0,0-.355,1.064l-.019.216v.248a3.012,3.012,0,0,0,.652,1.945,3.96,3.96,0,0,0,2.492,1.208,45.865,45.865,0,0,0,4.924.266,45.962,45.962,0,0,0,4.94-.267,3.894,3.894,0,0,0,2.446-1.168,3.023,3.023,0,0,0,.695-2.011v-.185a2.928,2.928,0,0,0-.493-1.5l.017.029-.156-.184a6.009,6.009,0,0,1-1.149-2.263L15.859,8.8l-.014-.105c-.012-.166-.018-.3-.021-.454l0-1.026c0-.258-.009-.433-.024-.62-.264-2.762-3.008-5.009-6.117-5.009H9.6c-3.11,0-5.849,2.244-6.105,5-.012.138-.022.29-.033.479l-.017.53L3.434,8.634,3.418,8.8a5.963,5.963,0,0,1-1.384,2.76h0Z" transform="translate(0)" fill="#72809d"/>
  </g>
</svg>
