<svg xmlns="http://www.w3.org/2000/svg" width="18" height="20" viewBox="0 0 18 20">
  <g id="Iconly_Light-outline_Calendar" data-name="Iconly/Light-outline/Calendar" transform="translate(0 -0.242)">
    <g id="Calendar">
      <path id="Calendar-2" data-name="Calendar" d="M5.1,20a5.143,5.143,0,0,1-3.725-1.354A5.127,5.127,0,0,1,0,14.9V6.485A5,5,0,0,1,1.372,2.8,4.982,4.982,0,0,1,4.584,1.486V.7A.692.692,0,0,1,5.962.6L5.968.7v.771H12.04V.7A.692.692,0,0,1,13.419.6L13.425.7v.789a4.951,4.951,0,0,1,3.249,1.349A5,5,0,0,1,18,6.485v8.489a5.016,5.016,0,0,1-1.37,3.692A5.186,5.186,0,0,1,12.9,20ZM1.384,14.9A3.343,3.343,0,0,0,5.1,18.6H12.9c2.393,0,3.712-1.289,3.712-3.631V8.283H1.384ZM16.615,6.888v-.4a3.611,3.611,0,0,0-.922-2.664,3.5,3.5,0,0,0-2.268-.935v.875a.692.692,0,0,1-1.379.095l-.006-.095v-.9H5.968v.9a.692.692,0,0,1-1.378.095l-.006-.095V2.885a3.235,3.235,0,0,0-3.2,3.6v.4Zm-4.207,7.946a.7.7,0,0,1,.6-.691l.1-.006a.7.7,0,0,1,.094,1.389l-.094.006A.7.7,0,0,1,12.408,14.834Zm-4.1,0a.7.7,0,0,1,.6-.691l.1-.006a.7.7,0,0,1,.095,1.389l-.095.006A.7.7,0,0,1,8.311,14.834Zm-4.1,0a.7.7,0,0,1,.6-.691l.1-.006A.7.7,0,0,1,5,15.525l-.1.006A.7.7,0,0,1,4.207,14.834Zm8.2-3.615a.7.7,0,0,1,.6-.691l.1-.006A.7.7,0,0,1,13.2,11.91l-.094.006A.7.7,0,0,1,12.408,11.219Zm-4.1,0a.7.7,0,0,1,.6-.691l.1-.006a.7.7,0,0,1,.095,1.389l-.095.006A.7.7,0,0,1,8.311,11.219Zm-4.1,0a.7.7,0,0,1,.6-.691l.1-.006A.7.7,0,0,1,5,11.91l-.1.006A.7.7,0,0,1,4.207,11.219Z" transform="translate(0 0.242)" fill="#72809d"/>
    </g>
  </g>
</svg>
