<svg xmlns="http://www.w3.org/2000/svg" width="19" height="20" viewBox="0 0 19 20">
  <g id="Iconly_Light-outline_Setting" data-name="Iconly/Light-outline/Setting" transform="translate(0 -0.242)">
    <g id="Setting">
      <path id="Setting-2" data-name="Setting" d="M8.881,20a2.648,2.648,0,0,1-1.886-.778,2.459,2.459,0,0,1-.735-1.747l-.009-.148a1.05,1.05,0,0,0-.148-.422,1.118,1.118,0,0,0-.688-.518,1.138,1.138,0,0,0-.285-.037,1.238,1.238,0,0,0-.615.171l-.177.087a2.675,2.675,0,0,1-1.794.128,2.609,2.609,0,0,1-1.57-1.214L.337,14.444l-.085-.159a2.532,2.532,0,0,1,1.029-3.3l.106-.065A1.116,1.116,0,0,0,1.88,10a1.137,1.137,0,0,0-.6-.988l-.156-.1A2.531,2.531,0,0,1,.361,5.507l.649-1.046A2.65,2.65,0,0,1,3.289,3.17,2.6,2.6,0,0,1,4.562,3.5l.133.069a1.082,1.082,0,0,0,.426.1A1.136,1.136,0,0,0,6.268,2.542l.008-.194A2.546,2.546,0,0,1,7.028.754,2.658,2.658,0,0,1,8.881,0h1.235A2.666,2.666,0,0,1,12,.779a2.5,2.5,0,0,1,.741,1.8l.008.148a1.021,1.021,0,0,0,.144.415,1.14,1.14,0,0,0,.976.55,1.221,1.221,0,0,0,.616-.172l.164-.083a2.655,2.655,0,0,1,3.387,1.044l.613,1.042a.763.763,0,0,1,.043.086l.057.112a2.547,2.547,0,0,1-.884,3.2l-.257.158a1.1,1.1,0,0,0-.33.356,1.086,1.086,0,0,0-.117.848,1.14,1.14,0,0,0,.56.695l.166.105a2.561,2.561,0,0,1,1.028,1.438,2.506,2.506,0,0,1-.272,1.958l-.66,1.077-.1.151a2.652,2.652,0,0,1-2.162,1.107,2.578,2.578,0,0,1-1.266-.33l-.137-.069a1.175,1.175,0,0,0-.435-.1h-.007a1.143,1.143,0,0,0-.8.326,1.128,1.128,0,0,0-.333.828l-.008.172A2.617,2.617,0,0,1,10.116,20ZM5.8,14.989a2.6,2.6,0,0,1,1.581,1.188A2.483,2.483,0,0,1,7.722,17.2l.02.354a1.135,1.135,0,0,0,1.139,1h1.235a1.129,1.129,0,0,0,1.14-1l.005-.109a2.554,2.554,0,0,1,.766-1.823,2.641,2.641,0,0,1,1.863-.75H13.9a2.713,2.713,0,0,1,1.048.241l.316.158a1.172,1.172,0,0,0,.464.1,1.12,1.12,0,0,0,.918-.457l.073-.111.644-1.052a1.1,1.1,0,0,0-.3-1.455l-.273-.169a2.561,2.561,0,0,1-1.062-1.462,2.528,2.528,0,0,1,.265-1.945,2.592,2.592,0,0,1,.793-.838l.16-.1a1.1,1.1,0,0,0,.473-1.418l-.071-.133L17.337,6.2l-.585-1a1.161,1.161,0,0,0-1-.567,1.092,1.092,0,0,0-.342.054l-.111.044-.1.051a2.668,2.668,0,0,1-1.983.272,2.624,2.624,0,0,1-1.6-1.18,2.483,2.483,0,0,1-.343-1.022L11.262,2.6a1.116,1.116,0,0,0-.324-.815,1.162,1.162,0,0,0-.819-.339H8.881a1.141,1.141,0,0,0-.805.328,1.1,1.1,0,0,0-.326.661l-.013.305A2.6,2.6,0,0,1,4.045,4.87l-.193-.1a1.156,1.156,0,0,0-.566-.149A1.172,1.172,0,0,0,2.281,5.2L1.632,6.244a1.1,1.1,0,0,0,.311,1.465l.261.162A2.55,2.55,0,0,1,3.358,10,2.581,2.581,0,0,1,2.2,12.129l-.156.1a1.094,1.094,0,0,0-.472,1.413l.056.106.63,1.064a1.136,1.136,0,0,0,.688.536,1.207,1.207,0,0,0,.321.043A1.088,1.088,0,0,0,3.7,15.3l.109-.052A2.648,2.648,0,0,1,5.8,14.989ZM6.168,10A3.336,3.336,0,1,1,9.5,13.269,3.306,3.306,0,0,1,6.168,10Zm1.478,0A1.858,1.858,0,1,0,9.5,8.18,1.842,1.842,0,0,0,7.645,10Z" transform="translate(0 0.242)" fill="#72809d"/>
    </g>
  </g>
</svg>
