<svg xmlns="http://www.w3.org/2000/svg" width="26.238" height="23.647" viewBox="0 0 26.238 23.647">
  <path id="Icon_awesome-home" data-name="Icon awesome-home" d="M12.259,8.1,4.2,15.742v8.247a.758.758,0,0,0,.7.805l4.9-.015a.759.759,0,0,0,.7-.805V19.159a.758.758,0,0,1,.7-.805h2.8a.758.758,0,0,1,.7.805v4.813a.871.871,0,0,0,.2.571.657.657,0,0,0,.5.237l4.9.016a.758.758,0,0,0,.7-.805V15.737L12.928,8.1A.48.48,0,0,0,12.259,8.1Zm12.734,5.194L21.337,9.827V2.857a.568.568,0,0,0-.525-.6H18.364a.568.568,0,0,0-.525.6V6.511L13.925,2.8a1.891,1.891,0,0,0-2.667,0L.189,13.295a.668.668,0,0,0-.07.85l1.115,1.56a.508.508,0,0,0,.355.218.48.48,0,0,0,.384-.135L12.259,6.038a.48.48,0,0,1,.669,0l10.285,9.749a.479.479,0,0,0,.739-.081l1.115-1.56a.668.668,0,0,0,.117-.444.634.634,0,0,0-.191-.408Z" transform="translate(0.551 -1.647)" fill="#72809d" stroke="#72809d" stroke-width="1"/>
</svg>
