<svg id="Iconly_Light-outline_Search" data-name="Iconly/Light-outline/Search" xmlns="http://www.w3.org/2000/svg" width="22.558" height="22.558" viewBox="0 0 22.558 22.558">
  <g id="Search" transform="translate(0 0)">
    <path id="Search-2" data-name="Search" d="M21.227,22.4l-.093-.079-3.527-3.44A10.942,10.942,0,0,1,10.84,21.2,10.735,10.735,0,0,1,0,10.6,10.735,10.735,0,0,1,10.84,0,10.735,10.735,0,0,1,21.681,10.6a10.433,10.433,0,0,1-2.855,7.161l3.486,3.4a.8.8,0,0,1,0,1.155.85.85,0,0,1-1.087.08ZM1.67,10.6a9.081,9.081,0,0,0,9.17,8.968A9.082,9.082,0,0,0,20.011,10.6,9.082,9.082,0,0,0,10.84,1.633,9.081,9.081,0,0,0,1.67,10.6Z" transform="translate(0 0)" fill="#72809d"/>
  </g>
</svg>
