<svg xmlns="http://www.w3.org/2000/svg" width="20" height="20" viewBox="0 0 20 20">
  <g id="Groupe_8930" data-name="Groupe 8930" transform="translate(-296 -26)">
    <g id="Iconly_Light-outline_Activity" data-name="Iconly/Light-outline/Activity" transform="translate(296 25.758)">
      <g id="Activity">
        <path id="Activity-2" data-name="Activity" d="M5.454,20A5.242,5.242,0,0,1,0,14.549l0-.233V6.507C0,3.231,2.075.923,5.227.817l.227,0H12.5a.725.725,0,0,1,.1,1.443l-.1.006H5.454a3.824,3.824,0,0,0-4,4.019l0,.225v7.808c0,2.514,1.437,4.138,3.785,4.231l.216,0h8.338a3.817,3.817,0,0,0,4-4.011l0-.224v-6.8a.727.727,0,0,1,1.446-.1l.007.1v6.8c0,3.275-2.075,5.576-5.228,5.681l-.227,0ZM4.7,13.436l-.09-.059a.724.724,0,0,1-.192-.927l.059-.089L7.379,8.6a.729.729,0,0,1,.935-.188l.09.06,2.732,2.14L13.528,7.54a.726.726,0,0,1,1.209.8l-.06.089L11.839,12.08a.729.729,0,0,1-.934.186l-.089-.06L8.084,10.067,5.631,13.245a.729.729,0,0,1-.93.192ZM14.821,2.581a2.589,2.589,0,1,1,2.589,2.581A2.589,2.589,0,0,1,14.821,2.581Zm1.454,0a1.136,1.136,0,1,0,1.136-1.132A1.135,1.135,0,0,0,16.275,2.581Z" transform="translate(0 0.242)" fill="#72809d"/>
      </g>
    </g>
  </g>
</svg>
